<svg width="32" height="32" xmlns="http://www.w3.org/2000/svg">
 <title/>

 <desc/>
 <g>
  <title>background</title>
  <rect x="-1" y="-1" width="4.176871" height="4.176871" id="canvas_background" fill="none"/>
 </g>
 <g>
  <title>Layer 1</title>
  <path d="m10.44704,5.78895l5.54351,0l14.15916,13.12719c0.82869,0.7683 0.83289,2.01216 0.00797,2.77695l-7.59432,7.04083c-0.82369,0.76365 -2.16595,0.76148 -2.99526,-0.00739l-14.15916,-13.12719l0,-7.84869c0,-0.93207 0.69132,-1.70324 1.62132,-1.90823c0.20842,0.31239 0.37265,0.69609 0.47072,1.15433c0.85657,4.00241 1.71175,5.4415 3.64596,5.6648c0.00618,0.00072 0.01251,-0.0015 0.01897,-0.00646c0.02088,0.00075 0.04185,0.00113 0.06292,0.00113c0.87661,0 1.58724,-0.65884 1.58724,-1.47155c0,-0.67239 -0.48639,-1.23944 -1.15076,-1.41523c0.00017,-0.00723 -0.00006,-0.01138 -0.0007,-0.01224c-0.28677,-0.38638 -0.64204,-1.4277 -1.04985,-3.33325c-0.047,-0.21961 -0.10313,-0.43127 -0.16772,-0.635l0,0l0,0zm-0.8702,0.82593c-0.91703,-4.28484 -5.87831,-4.88801 -7.79031,-2.06802c-1.53316,2.26124 -0.0162,6.14729 2.56425,6.14729l0,-0.98104c-1.64215,0 -2.80224,-2.97184 -1.66838,-4.64415c1.42069,-2.09536 5.13295,-1.64406 5.85651,1.73686c0.85596,3.99954 1.50154,4.86937 3.219,4.86937l0,-0.98104c-1.05092,0 -1.41224,-0.48684 -2.18107,-4.07927l0,0z" id="tag-cord" fill="#4c4c4c" stroke="null"/>
 </g>
</svg>